<svg width="108" height="108" viewBox="0 0 108 108" fill="none" xmlns="http://www.w3.org/2000/svg">
<g filter="url(#filter0_d)">
<path d="M104 0H4V100H104V0Z" fill="#D86613"/>
<path d="M84.6667 83.3333H68.24C67.9887 83.3326 67.7427 83.2609 67.5304 83.1264C67.318 82.992 67.148 82.8002 67.04 82.5733L43.8133 34H33.9867C33.633 34 33.2939 33.8595 33.0438 33.6095C32.7938 33.3594 32.6533 33.0203 32.6533 32.6667V18C32.6533 17.6464 32.7938 17.3072 33.0438 17.0572C33.2939 16.8071 33.633 16.6667 33.9867 16.6667H54.52C54.7713 16.6674 55.0173 16.7391 55.2296 16.8736C55.4419 17.008 55.6119 17.1998 55.72 17.4267L78.84 66H84.6667C85.0203 66 85.3594 66.1405 85.6095 66.3905C85.8595 66.6406 86 66.9797 86 67.3333V82C86 82.3536 85.8595 82.6928 85.6095 82.9428C85.3594 83.1929 85.0203 83.3333 84.6667 83.3333ZM69.08 80.6667H83.3333V68.6667H78C77.7487 68.666 77.5027 68.5942 77.2904 68.4598C77.078 68.3253 76.9081 68.1336 76.8 67.9067L53.68 19.3333H35.3333V31.3333H44.6667C44.918 31.334 45.164 31.4058 45.3763 31.5402C45.5886 31.6747 45.7586 31.8664 45.8667 32.0933L69.08 80.6667Z" fill="white"/>
<path d="M40.64 83.3334H23.3067C23.0801 83.3338 22.8571 83.2765 22.6588 83.1669C22.4605 83.0572 22.2935 82.8988 22.1734 82.7067C22.046 82.5099 21.9728 82.2831 21.9611 82.049C21.9494 81.8149 21.9996 81.5819 22.1067 81.3734L40.24 43.4934C40.3481 43.2665 40.5181 43.0747 40.7304 42.9403C40.9427 42.8058 41.1887 42.7341 41.44 42.7334C41.6899 42.7329 41.9349 42.8026 42.1471 42.9346C42.3593 43.0666 42.5301 43.2556 42.64 43.48L51.32 61.3334C51.4074 61.5142 51.4528 61.7125 51.4528 61.9134C51.4528 62.1142 51.4074 62.3125 51.32 62.4934L41.8534 82.4934C41.7563 82.7373 41.5893 82.9471 41.3735 83.0965C41.1577 83.246 40.9025 83.3283 40.64 83.3334ZM25.44 80.6667H39.8L48.64 62L41.4534 47.1334L25.44 80.6667Z" fill="white"/>
</g>
<defs>
<filter id="filter0_d" x="0" y="0" width="108" height="108" filterUnits="userSpaceOnUse" color-interpolation-filters="sRGB">
<feFlood flood-opacity="0" result="BackgroundImageFix"/>
<feColorMatrix in="SourceAlpha" type="matrix" values="0 0 0 0 0 0 0 0 0 0 0 0 0 0 0 0 0 0 127 0"/>
<feOffset dy="4"/>
<feGaussianBlur stdDeviation="2"/>
<feColorMatrix type="matrix" values="0 0 0 0 0 0 0 0 0 0 0 0 0 0 0 0 0 0 0.25 0"/>
<feBlend mode="normal" in2="BackgroundImageFix" result="effect1_dropShadow"/>
<feBlend mode="normal" in="SourceGraphic" in2="effect1_dropShadow" result="shape"/>
</filter>
</defs>
</svg>
