<svg xmlns="http://www.w3.org/2000/svg" xmlns:xlink="http://www.w3.org/1999/xlink" xmlns:lucid="lucid" width="1100" height="420"><g transform="translate(-80 -180)" lucid:page-tab-id="TIYOIp3ahgsl"><path d="M240 360h120v120H240V360z" stroke="#fff" stroke-opacity="0" fill="#d6242d"/><path d="M317.6 458.42c-.35 0-.64-.15-.93-.3-.43-.3-.67-.78-.67-1.3v-73.63c0-.55.3-1.1.77-1.4.48-.3 1.08-.3 1.6-.07l20.8 10.22c.56.23.9.77.9 1.38v56.56c.02.76-.4 1.37-1.1 1.6l-20.8 6.92h-.56zm1.62-72.62v68.78l17.6-5.84v-54.4zM282.4 458.42h-.52l-20.8-6.92c-.67-.23-1.1-.92-1.08-1.6v-56.57c0-.6.33-1.15.9-1.38l20.8-10.22c.52-.23 1.1-.23 1.6.08.48.3.75.85.75 1.4v73.6c0 .54-.24 1-.68 1.3-.28.24-.6.32-.98.32zm-19.2-9.6l17.6 5.83V385.8l-17.6 8.6z" stroke="#fff" stroke-opacity="0" fill="#fff"/><path d="M316 404h-4.8v-3.2h4.8zm-9.6 0h-4.8v-3.2h4.8zm-9.6 0H292v-3.2h4.8zm-9.6 0h-4.8v-3.2h4.8zM316 439.2h-4.8V436h4.8zm-9.6 0h-4.8V436h4.8zm-9.6 0H292V436h4.8zm-9.6 0h-4.8V436h4.8zM292.98 425.5l-6.02-5.13c-.67-.57-.75-1.6-.18-2.26l.18-.17 6-5.13 2.08 2.43-4.58 3.97 4.58 3.92zM307.04 425.5l-2.08-2.42 4.57-3.88-4.6-3.9 2.1-2.5 6 5.12c.68.57.76 1.6.2 2.26-.07.06-.12.12-.2.17z" stroke="#fff" stroke-opacity="0" fill="#fff"/><path d="M295.3 428.87l6.35-18.8 3.04 1.03-6.37 18.8-3.04-1.03z" stroke="#fff" stroke-opacity="0" stroke-width=".32" fill="#fff"/><use xlink:href="#a" transform="matrix(1,0,0,1,210,489) translate(3.135802469135797 14.222222222222223)"/><use xlink:href="#b" transform="matrix(1,0,0,1,210,489) translate(73.20987654320987 14.222222222222223)"/><use xlink:href="#c" transform="matrix(1,0,0,1,210,489) translate(106.79012345679013 14.222222222222223)"/><path d="M383.95 304.03H371c-.65 0-1.26-.38-1.52-.98l-18.14-38.9h-7.32c-.9 0-1.7-.75-1.7-1.68v-11.22c0-.92.8-1.68 1.7-1.68h16.15c.7 0 1.26.38 1.52.98l18.1 38.9h4.15c.9 0 1.68.75 1.68 1.73v11.17c0 .92-.78 1.68-1.68 1.68zm-11.9-3.43h10.16v-7.73h-3.5c-.64 0-1.25-.38-1.5-.98l-18.07-38.96h-13.38v7.8h6.67c.7 0 1.3.37 1.56.97z" stroke="#fff" stroke-opacity="0" fill="#d86613"/><path d="M348.8 304.03H335c-.9 0-1.68-.77-1.68-1.7 0-.28.05-.48.17-.72l14.45-30.26c.3-.6.87-.97 1.53-.97.67 0 1.24.33 1.54.94l6.9 14.32c.23.47.23.97 0 1.45l-7.55 16c-.3.6-.87.96-1.54.96zm-11.1-3.4h10.02l6.8-14.27-5.1-10.37z" stroke="#fff" stroke-opacity="0" fill="#d86613"/><path d="M360 320c-22.08 0-40-17.92-40-40s17.92-40 40-40 40 17.92 40 40-17.92 40-40 40zm0-76.56c-20.24 0-36.56 16.32-36.56 36.56 0 20.24 16.32 36.56 36.56 36.56 20.24 0 36.56-16.32 36.56-36.56 0-20.24-16.32-36.56-36.56-36.56z" stroke="#fff" stroke-opacity="0" fill="#d86613"/><use xlink:href="#d" transform="matrix(1,0,0,1,290,329) translate(1.4320987654320874 14.222222222222223)"/><use xlink:href="#e" transform="matrix(1,0,0,1,290,329) translate(70.51851851851852 14.222222222222223)"/><path d="M580 360h120v120H580V360z" stroke="#fff" stroke-opacity="0" stroke-width="2" fill="#693cc5"/><path d="M659.27 421.6c.7 4.3 3.9 7.5 8.2 8.23 5.47.88 10.55-2.8 11.4-8.24.95-5.45-2.72-10.57-8.2-11.45-5.38-.88-10.54 2.8-11.4 8.24H647.3c-.14-3.13-.85-5.7-2.18-8.5l14.38-12.15c1.8 1.44 3.83 2.16 6.18 2.16 5.47 0 9.92-4.47 9.92-10 0-5.43-4.45-9.9-9.92-9.9-5.55 0-10 4.47-10 10 0 2 .54 3.67 1.64 5.43l-13.9 11.68c-1.8-2.63-3.77-4.63-6.42-6.4-10.7-7.1-25.1-4.23-32.2 6.4-7.1 10.65-4.22 25.05 6.4 32.17 10.64 7.12 25.1 4.24 32.2-6.4l13.92 11.76c-1.1 1.68-1.65 3.36-1.65 5.44 0 2.32.7 4.32 2.2 6.16 3.35 4.32 9.6 5.04 13.9 1.6 4.38-3.36 5.08-9.6 1.64-13.92-3.35-4.3-9.6-5.03-13.9-1.67l-14.38-12.16c1.33-2.8 2.04-5.36 2.2-8.48zm9.77-8.33c3.75 0 6.8 2.96 6.8 6.72 0 3.75-3.05 6.7-6.72 6.8-3.76 0-6.8-3.05-6.8-6.8 0-3.7 3.04-6.73 6.72-6.73zm-3.28-30.08c3.67 0 6.72 3.03 6.72 6.8 0 3.67-3.05 6.7-6.72 6.7-3.76 0-6.8-3.03-6.8-6.7 0-3.77 3.04-6.8 6.8-6.8zm0 60.15c3.67 0 6.72 2.96 6.72 6.72s-3.05 6.72-6.72 6.72c-3.76 0-6.8-2.97-6.8-6.73 0-3.76 3.04-6.72 6.8-6.72zM624.18 440c-11.02 0-20-8.97-20-20 0-11.05 8.98-20 20-20s20 8.95 20 20c0 11.03-8.98 20-20 20z" stroke="#fff" stroke-opacity="0" stroke-width="2" fill="#fff"/><use xlink:href="#f" transform="matrix(1,0,0,1,550,489) translate(0.22222222222221433 14.222222222222223)"/><use xlink:href="#g" transform="matrix(1,0,0,1,550,489) translate(57.4074074074074 14.222222222222223)"/><use xlink:href="#h" transform="matrix(1,0,0,1,550,489) translate(101.85185185185185 14.222222222222223)"/><path d="M810 360h120v120H810V360z" stroke="#fff" stroke-opacity="0" stroke-width="2" fill="#d86613"/><path d="M849.66 418.24c.14.14.22.27.4.36.23.23.45.4.72.58l.18.14.8.4.5.22h.36l.4.18c.76.27 1.57.58 2.5.9l1.5.4.75.22c4.2 1.03 7.88 1.47 12.23 1.43 6.6.13 12.2-.94 18.23-3.5 2.6-1.2 4.13-3.56 4.17-6.42V390.2c0-1-.54-1.84-1.43-2.28l-19.9-9.25c-.67-.36-1.43-.36-2.1 0l-19.94 9.25c-.9.44-1.43 1.3-1.43 2.27v23.04c0 1.8.58 3.3 1.75 4.7.1.13.18.22.3.3zm8.15.23l-1.33-.4c-.85-.27-1.57-.54-2.24-.76l-.58-.26-.54-.22c-.17-.1-.35-.18-.53-.27l-.4-.32-.18-.22-.14-.12-.14-.14c-.63-.76-.94-1.56-.94-2.54v-21.1l17.6 8.28v19.56c-3.5-.04-6.44-.44-9.85-1.25zm29.13-1.7c-5.1 2.2-9.8 3.17-15.36 3.22v-19.3l17.6-8.05v20.5c.05 1.6-.8 2.95-2.24 3.62zM870 381.67l17.7 8.26-17.43 7.8-.1-.08-17.2-8z" stroke="#fff" stroke-opacity="0" stroke-width="2" fill="#fff"/><path d="M897.62 404.3l-.83 3.05c7.15 2.13 11.64 5.14 11.64 7.85 0 5.3-15.8 11.2-38.44 11.2-22.63 0-38.44-5.9-38.44-11.2 0-2.7 4.5-5.72 11.65-7.85l-.82-3.06c-9 2.62-13.98 6.52-13.98 10.9 0 9.34 21.47 14.4 41.6 14.4 20.13 0 41.6-5.06 41.6-14.4 0-4.38-5-8.25-13.98-10.9zM897.54 434.63l-7.44-3.2c-.6-.28-1.2-.28-1.8 0l-7.6 3.26c-.7.36-1.1 1-1.1 1.75v8.25l-7.1-3.1c-.6-.3-1.2-.3-1.8 0l-7.17 3.1v-8.28c0-.8-.44-1.48-1.14-1.8l-7.5-3.2c-.56-.27-1.2-.27-1.8 0l-7.6 3.27c-.72.36-1.1 1-1.1 1.75v9.74c0 .8.43 1.48 1.2 1.8l7.44 3.2h.16c.27.1.5.18.82.18.27 0 .54-.03.76-.2l7.22-3.08v8.25c0 .8.44 1.46 1.15 1.8l7.44 3.2h.1c.27.13.54.2.87.2.27 0 .54-.07.8-.2l7.62-3.27c.7-.37 1.08-1 1.13-1.8v-8.18l7.06 3.1h.2c.28.1.56.18.88.2.27-.02.5-.1.7-.2l7.67-3.2c.7-.32 1.1-1 1.1-1.75v-9.83c0-.8-.45-1.48-1.2-1.8zm-8.37-.15l4.35 1.88-4.08 1.67-4.23-1.82zm-17.6 10.22l4.34 1.85-4.06 1.6-4.24-1.75zm-17.6-10.22l4.34 1.88-4.07 1.6-4.23-1.75zm-6.42 4.2l4.84 2.02v6.73l-4.85-2.06zm8.04 8.72V441l4.77-1.97v6.4zm9.56 1.46l4.83 2.06v6.67l-4.84-2.07zm7.98 8.76v-6.43l4.84-1.98v6.4zm9.62-18.95l4.78 2.03v6.73l-4.78-2.06zm8 8.76v-6.4l4.82-2v6.4z" stroke="#fff" stroke-opacity="0" stroke-width="2" fill="#fff"/><use xlink:href="#i" transform="matrix(1,0,0,1,780,489) translate(37.06172839506172 14.222222222222223)"/><use xlink:href="#j" transform="matrix(1,0,0,1,780,489) translate(81.80246913580247 14.222222222222223)"/><path d="M1040 360h120v120h-120V360z" stroke="#fff" stroke-opacity="0" stroke-width="2" fill="#3b48cc"/><path d="M1117.53 405.17c0-4.63-9.1-6.8-17.6-6.8-8.5 0-17.6 2.17-17.6 6.8 0 .26.02.43.06.7v28.85c-.08 4.83 9.06 6.86 17.6 6.86 8.57 0 17.6-2.1 17.6-6.74v-29.67zm-17.57-3.6c9.3 0 14.4 2.56 14.4 3.6 0 1.03-5.05 3.58-14.4 3.58-9.4 0-14.4-2.5-14.4-3.58 0-1.04 5.05-3.6 14.4-3.6zm14.4 33.27c0 1.04-5.05 3.55-14.4 3.55-9.35 0-14.4-2.52-14.4-3.56v-5.05c3.36 1.85 9.04 2.7 14.4 2.7 5.36 0 10.97-.85 14.4-2.67zm0-9.1c0 1.03-5.05 3.58-14.4 3.58-9.4 0-14.4-2.55-14.4-3.6h.04v-6.08c3.4 1.8 9.03 2.68 14.4 2.68 5.36 0 10.97-.87 14.4-2.64zm0-10.2c0 1.03-5.05 3.62-14.4 3.62-9.4 0-14.4-2.6-14.4-3.63h.04v-6.22c3.42 1.83 9 2.65 14.4 2.65s11.07-.87 14.4-2.72zM1065.46 456.82H1076v3.2h-14.4c-.88 0-1.6-.72-1.6-1.6V444h3.2v10.5l12-11.98 2.24 2.26zM1140 444.02v14.4c0 .9-.7 1.6-1.6 1.6H1124v-3.2h10.54l-11.82-11.85 2.26-2.25 11.82 11.8v-10.5zM1140 381.62v14.4h-3.2v-10.57l-11.82 11.83-2.26-2.26 11.8-11.8H1124V380h14.4c.9 0 1.6.7 1.6 1.6zM1077.44 395.2l-2.23 2.24-12-12V396h-3.2v-14.4c0-.9.72-1.62 1.6-1.62h14.4v3.2h-10.54zM1075.46 434.34c-9.78-3.5-15.38-8.9-15.38-14.74s5.6-11.2 15.38-14.74l1.08 3c-8.3 3.02-13.27 7.38-13.27 11.74s4.98 8.72 13.27 11.73zM1123.65 434.7l-1.03-3.06c8.88-3 14.18-7.48 14.18-12.04 0-4.56-5.3-9.05-14.18-12.07l1.03-3.02c10.4 3.5 16.35 9.03 16.35 15.1s-5.96 11.56-16.35 15.1z" stroke="#fff" stroke-opacity="0" stroke-width="2" fill="#fff"/><use xlink:href="#a" transform="matrix(1,0,0,1,1010,489) translate(36.24691358024691 14.222222222222223)"/><use xlink:href="#k" transform="matrix(1,0,0,1,1010,489) translate(106.32098765432099 14.222222222222223)"/><path d="M500 390c0 104.88-89.6 190-200 190s-200-85.12-200-190 89.6-190 200-190 200 85.12 200 190z" fill-opacity="0"/><path d="M487.4 456.5l-.14.33-2.97 7.07-3.3 7-3.6 6.88-3.92 6.8-4.23 6.65-4.54 6.53-4.83 6.38-5.15 6.23-3.2 3.55m-24.93 23.1l-1.9 1.5-6.78 4.92-7 4.67-7.25 4.4-7.44 4.08-7.64 3.8-7.8 3.46-8 3.16-5.9 2.06m-33 8.18l-2.98.5-8.7 1.1-8.83.74-8.92.37-4.48.05-8.96-.2-8.86-.54-8.76-.93-7.3-1.08m-33-8.18l-1.9-.62-8.05-3-7.9-3.3-7.7-3.64-7.55-3.93-7.34-4.24-7.13-4.52-6.9-4.8-5.24-3.97m-24.94-23.1l-.5-.52-5.3-6.13-5-6.3-4.68-6.46-4.4-6.6-4.06-6.72-3.76-6.84-3.45-6.94-3.12-7.03-1.54-3.9m-9.47-32.63l-1.22-7.24-.95-7.52-.64-7.6-.32-7.63L100 390l.16-7.68.48-7.62.8-7.55 1.1-7.5.67-3.5m9.4-32.65l.14-.33 2.97-7.07 3.3-7 3.6-6.88 3.92-6.8 4.23-6.65 4.54-6.53 4.83-6.38 5.15-6.23 3.2-3.55m24.93-23.1l1.9-1.5 6.78-4.92 7-4.67 7.25-4.4 7.44-4.08 7.64-3.8 7.8-3.46 8-3.16 5.9-2.06m33-8.18l2.98-.5 8.7-1.1 8.83-.74 8.92-.37L300 200l8.96.2 8.86.54 8.76.93 7.3 1.08m33 8.18l1.9.62 8.05 3 7.9 3.3 7.7 3.64 7.55 3.93 7.34 4.24 7.13 4.52 6.9 4.8 5.24 3.97m24.94 23.1l.5.52 5.3 6.13 5 6.3 4.68 6.46 4.4 6.6 4.06 6.72 3.76 6.84 3.45 6.94 3.12 7.03 1.54 3.9m9.47 32.63l1.22 7.24.95 7.52.64 7.6.32 7.63.04 3.85-.16 7.68-.48 7.62-.8 7.55-1.1 7.5-.67 3.5" stroke="#c92d39" stroke-width="4" fill="none"/><path d="M361 420h200.5" stroke="#999" stroke-width="2" fill="none"/><path d="M361.03 421H360v-2h1.03z" fill="#999"/><path d="M576.76 420l-14.26 4.64v-9.28z" stroke="#999" stroke-width="2" fill="#999"/><path d="M701 420h90.5" stroke="#999" stroke-width="2" fill="none"/><path d="M701.03 421H700v-2h1.03z" fill="#999"/><path d="M806.76 420l-14.26 4.64v-9.28z" stroke="#999" stroke-width="2" fill="#999"/><path d="M931 420h90.5" stroke="#999" stroke-width="2" fill="none"/><path d="M931.03 421H930v-2h1.03z" fill="#999"/><path d="M1036.76 420l-14.26 4.64v-9.28z" stroke="#999" stroke-width="2" fill="#999"/><defs><path d="M205 0l-28-72H64L36 0H1l101-248h38L239 0h-34zm-38-99l-47-123c-12 45-31 82-46 123h93" id="l"/><path d="M210-169c-67 3-38 105-44 169h-31v-121c0-29-5-50-35-48C34-165 62-65 56 0H25l-1-190h30c1 10-1 24 2 32 10-44 99-50 107 0 11-21 27-35 58-36 85-2 47 119 55 194h-31v-121c0-29-5-49-35-48" id="m"/><path d="M141-36C126-15 110 5 73 4 37 3 15-17 15-53c-1-64 63-63 125-63 3-35-9-54-41-54-24 1-41 7-42 31l-33-3c5-37 33-52 76-52 45 0 72 20 72 64v82c-1 20 7 32 28 27v20c-31 9-61-2-59-35zM48-53c0 20 12 33 32 33 41-3 63-29 60-74-43 2-92-5-92 41" id="n"/><path d="M9 0v-24l116-142H16v-24h144v24L44-24h123V0H9" id="o"/><path d="M100-194c62-1 85 37 85 99 1 63-27 99-86 99S16-35 15-95c0-66 28-99 85-99zM99-20c44 1 53-31 53-75 0-43-8-75-51-75s-53 32-53 75 10 74 51 75" id="p"/><path d="M117-194c89-4 53 116 60 194h-32v-121c0-31-8-49-39-48C34-167 62-67 57 0H25l-1-190h30c1 10-1 24 2 32 11-22 29-35 61-36" id="q"/><g id="a"><use transform="matrix(0.04938271604938272,0,0,0.04938271604938272,0,0)" xlink:href="#l"/><use transform="matrix(0.04938271604938272,0,0,0.04938271604938272,11.851851851851853,0)" xlink:href="#m"/><use transform="matrix(0.04938271604938272,0,0,0.04938271604938272,26.617283950617285,0)" xlink:href="#n"/><use transform="matrix(0.04938271604938272,0,0,0.04938271604938272,36.49382716049383,0)" xlink:href="#o"/><use transform="matrix(0.04938271604938272,0,0,0.04938271604938272,45.38271604938272,0)" xlink:href="#p"/><use transform="matrix(0.04938271604938272,0,0,0.04938271604938272,55.25925925925927,0)" xlink:href="#q"/></g><path d="M30-248c87 1 191-15 191 75 0 78-77 80-158 76V0H30v-248zm33 125c57 0 124 11 124-50 0-59-68-47-124-48v98" id="r"/><path d="M33 0v-248h34V0H33" id="s"/><g id="b"><use transform="matrix(0.04938271604938272,0,0,0.04938271604938272,0,0)" xlink:href="#l"/><use transform="matrix(0.04938271604938272,0,0,0.04938271604938272,11.851851851851853,0)" xlink:href="#r"/><use transform="matrix(0.04938271604938272,0,0,0.04938271604938272,23.703703703703706,0)" xlink:href="#s"/></g><path d="M143 4C61 4 22-44 18-125c-5-107 100-154 193-111 17 8 29 25 37 43l-32 9c-13-25-37-40-76-40-61 0-88 39-88 99 0 61 29 100 91 101 35 0 62-11 79-27v-45h-74v-28h105v86C228-13 192 4 143 4" id="t"/><path d="M59-47c-2 24 18 29 38 22v24C64 9 27 4 27-40v-127H5v-23h24l9-43h21v43h35v23H59v120" id="u"/><path d="M100-194c63 0 86 42 84 106H49c0 40 14 67 53 68 26 1 43-12 49-29l28 8c-11 28-37 45-77 45C44 4 14-33 15-96c1-61 26-98 85-98zm52 81c6-60-76-77-97-28-3 7-6 17-6 28h103" id="v"/><path d="M206 0h-36l-40-164L89 0H53L-1-190h32L70-26l43-164h34l41 164 42-164h31" id="w"/><path d="M179-190L93 31C79 59 56 82 12 73V49c39 6 53-20 64-50L1-190h34L92-34l54-156h33" id="x"/><g id="c"><use transform="matrix(0.04938271604938272,0,0,0.04938271604938272,0,0)" xlink:href="#t"/><use transform="matrix(0.04938271604938272,0,0,0.04938271604938272,13.827160493827162,0)" xlink:href="#n"/><use transform="matrix(0.04938271604938272,0,0,0.04938271604938272,23.703703703703706,0)" xlink:href="#u"/><use transform="matrix(0.04938271604938272,0,0,0.04938271604938272,28.641975308641978,0)" xlink:href="#v"/><use transform="matrix(0.04938271604938272,0,0,0.04938271604938272,38.51851851851852,0)" xlink:href="#w"/><use transform="matrix(0.04938271604938272,0,0,0.04938271604938272,51.308641975308646,0)" xlink:href="#n"/><use transform="matrix(0.04938271604938272,0,0,0.04938271604938272,61.18518518518519,0)" xlink:href="#x"/></g><path d="M30 0v-248h33v221h125V0H30" id="y"/><path d="M115-194c53 0 69 39 70 98 0 66-23 100-70 100C84 3 66-7 56-30L54 0H23l1-261h32v101c10-23 28-34 59-34zm-8 174c40 0 45-34 45-75 0-40-5-75-45-74-42 0-51 32-51 76 0 43 10 73 51 73" id="z"/><path d="M85-194c31 0 48 13 60 33l-1-100h32l1 261h-30c-2-10 0-23-3-31C134-8 116 4 85 4 32 4 16-35 15-94c0-66 23-100 70-100zm9 24c-40 0-46 34-46 75 0 40 6 74 45 74 42 0 51-32 51-76 0-42-9-74-50-73" id="A"/><g id="d"><use transform="matrix(0.04938271604938272,0,0,0.04938271604938272,0,0)" xlink:href="#y"/><use transform="matrix(0.04938271604938272,0,0,0.04938271604938272,9.876543209876544,0)" xlink:href="#n"/><use transform="matrix(0.04938271604938272,0,0,0.04938271604938272,19.75308641975309,0)" xlink:href="#m"/><use transform="matrix(0.04938271604938272,0,0,0.04938271604938272,34.51851851851852,0)" xlink:href="#z"/><use transform="matrix(0.04938271604938272,0,0,0.04938271604938272,44.39506172839506,0)" xlink:href="#A"/><use transform="matrix(0.04938271604938272,0,0,0.04938271604938272,54.27160493827161,0)" xlink:href="#n"/></g><path d="M63-220v92h138v28H63V0H30v-248h175v28H63" id="B"/><path d="M84 4C-5 8 30-112 23-190h32v120c0 31 7 50 39 49 72-2 45-101 50-169h31l1 190h-30c-1-10 1-25-2-33-11 22-28 36-60 37" id="C"/><path d="M96-169c-40 0-48 33-48 73s9 75 48 75c24 0 41-14 43-38l32 2c-6 37-31 61-74 61-59 0-76-41-82-99-10-93 101-131 147-64 4 7 5 14 7 22l-32 3c-4-21-16-35-41-35" id="D"/><path d="M24-231v-30h32v30H24zM24 0v-190h32V0H24" id="E"/><g id="e"><use transform="matrix(0.04938271604938272,0,0,0.04938271604938272,0,0)" xlink:href="#B"/><use transform="matrix(0.04938271604938272,0,0,0.04938271604938272,10.814814814814815,0)" xlink:href="#C"/><use transform="matrix(0.04938271604938272,0,0,0.04938271604938272,20.69135802469136,0)" xlink:href="#q"/><use transform="matrix(0.04938271604938272,0,0,0.04938271604938272,30.567901234567906,0)" xlink:href="#D"/><use transform="matrix(0.04938271604938272,0,0,0.04938271604938272,39.4567901234568,0)" xlink:href="#u"/><use transform="matrix(0.04938271604938272,0,0,0.04938271604938272,44.39506172839507,0)" xlink:href="#E"/><use transform="matrix(0.04938271604938272,0,0,0.04938271604938272,48.296296296296305,0)" xlink:href="#p"/><use transform="matrix(0.04938271604938272,0,0,0.04938271604938272,58.17283950617284,0)" xlink:href="#q"/></g><path d="M30 0v-248h187v28H63v79h144v27H63v87h162V0H30" id="F"/><path d="M24 0v-261h32V0H24" id="G"/><path d="M135-143c-3-34-86-38-87 0 15 53 115 12 119 90S17 21 10-45l28-5c4 36 97 45 98 0-10-56-113-15-118-90-4-57 82-63 122-42 12 7 21 19 24 35" id="H"/><g id="f"><use transform="matrix(0.04938271604938272,0,0,0.04938271604938272,0,0)" xlink:href="#F"/><use transform="matrix(0.04938271604938272,0,0,0.04938271604938272,11.851851851851853,0)" xlink:href="#G"/><use transform="matrix(0.04938271604938272,0,0,0.04938271604938272,15.753086419753087,0)" xlink:href="#n"/><use transform="matrix(0.04938271604938272,0,0,0.04938271604938272,25.629629629629633,0)" xlink:href="#H"/><use transform="matrix(0.04938271604938272,0,0,0.04938271604938272,34.51851851851852,0)" xlink:href="#u"/><use transform="matrix(0.04938271604938272,0,0,0.04938271604938272,39.45679012345679,0)" xlink:href="#E"/><use transform="matrix(0.04938271604938272,0,0,0.04938271604938272,43.358024691358025,0)" xlink:href="#D"/></g><g id="g"><use transform="matrix(0.04938271604938272,0,0,0.04938271604938272,0,0)" xlink:href="#y"/><use transform="matrix(0.04938271604938272,0,0,0.04938271604938272,9.876543209876544,0)" xlink:href="#p"/><use transform="matrix(0.04938271604938272,0,0,0.04938271604938272,19.75308641975309,0)" xlink:href="#n"/><use transform="matrix(0.04938271604938272,0,0,0.04938271604938272,29.629629629629633,0)" xlink:href="#A"/></g><path d="M160-131c35 5 61 23 61 61C221 17 115-2 30 0v-248c76 3 177-17 177 60 0 33-19 50-47 57zm-97-11c50-1 110 9 110-42 0-47-63-36-110-37v79zm0 115c55-2 124 14 124-45 0-56-70-42-124-44v89" id="I"/><path d="M177-190C167-65 218 103 67 71c-23-6-38-20-44-43l32-5c15 47 100 32 89-28v-30C133-14 115 1 83 1 29 1 15-40 15-95c0-56 16-97 71-98 29-1 48 16 59 35 1-10 0-23 2-32h30zM94-22c36 0 50-32 50-73 0-42-14-75-50-75-39 0-46 34-46 75s6 73 46 73" id="J"/><g id="h"><use transform="matrix(0.04938271604938272,0,0,0.04938271604938272,0,0)" xlink:href="#I"/><use transform="matrix(0.04938271604938272,0,0,0.04938271604938272,11.851851851851853,0)" xlink:href="#n"/><use transform="matrix(0.04938271604938272,0,0,0.04938271604938272,21.7283950617284,0)" xlink:href="#G"/><use transform="matrix(0.04938271604938272,0,0,0.04938271604938272,25.629629629629633,0)" xlink:href="#n"/><use transform="matrix(0.04938271604938272,0,0,0.04938271604938272,35.50617283950618,0)" xlink:href="#q"/><use transform="matrix(0.04938271604938272,0,0,0.04938271604938272,45.38271604938272,0)" xlink:href="#D"/><use transform="matrix(0.04938271604938272,0,0,0.04938271604938272,54.27160493827161,0)" xlink:href="#E"/><use transform="matrix(0.04938271604938272,0,0,0.04938271604938272,58.17283950617284,0)" xlink:href="#q"/><use transform="matrix(0.04938271604938272,0,0,0.04938271604938272,68.0493827160494,0)" xlink:href="#J"/></g><path d="M266 0h-40l-56-210L115 0H75L2-248h35L96-30l15-64 43-154h32l59 218 59-218h35" id="K"/><path d="M185-189c-5-48-123-54-124 2 14 75 158 14 163 119 3 78-121 87-175 55-17-10-28-26-33-46l33-7c5 56 141 63 141-1 0-78-155-14-162-118-5-82 145-84 179-34 5 7 8 16 11 25" id="L"/><g id="i"><use transform="matrix(0.04938271604938272,0,0,0.04938271604938272,0,0)" xlink:href="#l"/><use transform="matrix(0.04938271604938272,0,0,0.04938271604938272,11.209876543209878,0)" xlink:href="#K"/><use transform="matrix(0.04938271604938272,0,0,0.04938271604938272,27.95061728395062,0)" xlink:href="#L"/></g><path d="M114-163C36-179 61-72 57 0H25l-1-190h30c1 12-1 29 2 39 6-27 23-49 58-41v29" id="M"/><g id="j"><use transform="matrix(0.04938271604938272,0,0,0.04938271604938272,0,0)" xlink:href="#B"/><use transform="matrix(0.04938271604938272,0,0,0.04938271604938272,10.814814814814815,0)" xlink:href="#n"/><use transform="matrix(0.04938271604938272,0,0,0.04938271604938272,20.69135802469136,0)" xlink:href="#M"/><use transform="matrix(0.04938271604938272,0,0,0.04938271604938272,26.567901234567902,0)" xlink:href="#J"/><use transform="matrix(0.04938271604938272,0,0,0.04938271604938272,36.44444444444445,0)" xlink:href="#n"/><use transform="matrix(0.04938271604938272,0,0,0.04938271604938272,46.320987654320994,0)" xlink:href="#u"/><use transform="matrix(0.04938271604938272,0,0,0.04938271604938272,51.25925925925927,0)" xlink:href="#v"/></g><path d="M233-177c-1 41-23 64-60 70L243 0h-38l-65-103H63V0H30v-248c88 3 205-21 203 71zM63-129c60-2 137 13 137-47 0-61-80-42-137-45v92" id="N"/><path d="M30-248c118-7 216 8 213 122C240-48 200 0 122 0H30v-248zM63-27c89 8 146-16 146-99s-60-101-146-95v194" id="O"/><g id="k"><use transform="matrix(0.04938271604938272,0,0,0.04938271604938272,0,0)" xlink:href="#N"/><use transform="matrix(0.04938271604938272,0,0,0.04938271604938272,12.790123456790125,0)" xlink:href="#O"/><use transform="matrix(0.04938271604938272,0,0,0.04938271604938272,25.58024691358025,0)" xlink:href="#L"/></g></defs></g></svg>